<svg width="18" height="18" viewBox="0 0 18 18" fill="none" xmlns="http://www.w3.org/2000/svg">
<path d="M10.7981 1.23567L7.13948 4.89424C7.13241 4.90127 7.12802 4.90982 7.12099 4.91692C8.02229 4.78564 8.9482 4.87564 9.8065 5.21033L12.2896 2.72725C13.1122 1.90462 14.4501 1.90462 15.2727 2.72725C16.0953 3.5498 16.0953 4.88774 15.2727 5.71029C15.1324 5.85063 11.4026 9.58047 11.6141 9.36886C10.785 10.1981 9.42474 10.1626 8.63102 9.36886C8.21994 8.95778 7.55063 8.95778 7.13948 9.36886L6.49915 10.0092C6.67675 10.311 6.88038 10.6014 7.13948 10.8605C8.70182 12.4228 11.3911 12.5476 13.083 10.879C13.0901 10.8719 13.0986 10.8675 13.1057 10.8605L16.7643 7.2019C18.4118 5.55434 18.4118 2.88323 16.7643 1.23567C15.1167 -0.411891 12.4456 -0.411891 10.7981 1.23567V1.23567Z" fill="white"/>
<path d="M8.20139 12.7816L5.71029 15.2727C4.88774 16.0953 3.5498 16.0953 2.72725 15.2727C1.90463 14.4501 1.90463 13.1122 2.72725 12.2896C2.86753 12.1493 6.60534 8.41149 6.3938 8.62302C7.22292 7.7939 8.58319 7.8293 9.37691 8.62302C9.78799 9.03418 10.4573 9.03418 10.8684 8.62302L11.5088 7.98269C11.3312 7.68091 11.1276 7.39052 10.8684 7.13148C9.30909 5.57206 6.62182 5.43938 4.9249 7.11296C4.91784 7.11999 4.90933 7.12442 4.90223 7.13148L1.23564 10.7981C-0.411846 12.4456 -0.411917 15.1167 1.23564 16.7643C2.88321 18.4118 5.55438 18.4118 7.20187 16.7643L10.8684 13.0977C10.8755 13.0906 10.8799 13.0822 10.8869 13.075C9.98561 13.2063 9.05973 13.1163 8.20139 12.7816Z" fill="white"/>
</svg>
