<svg width="40" height="40" viewBox="0 0 40 40" fill="none" xmlns="http://www.w3.org/2000/svg">
<path d="M20 40C31.0457 40 40 31.0457 40 20C40 8.9543 31.0457 0 20 0C8.9543 0 0 8.9543 0 20C0 31.0457 8.9543 40 20 40Z" fill="white"/>
<path d="M32.4001 7.0481L21.6425 15.0207L23.6409 10.3222L32.4001 7.0481Z" fill="#E17726"/>
<path d="M7.61072 7.0481L18.2621 15.0951L16.3593 10.3222L7.61072 7.0481Z" fill="#E27625"/>
<path d="M28.5306 25.5337L25.6711 29.9133L31.7941 31.6034L33.5374 25.6294L28.5306 25.5337Z" fill="#E27625"/>
<path d="M6.47314 25.6294L8.20585 31.6034L14.3288 29.9133L11.4799 25.5337L6.47314 25.6294Z" fill="#E27625"/>
<path d="M13.9994 18.1354L12.288 20.7079L18.3577 20.9843L18.1451 14.4468L13.9994 18.1354Z" fill="#E27625"/>
<path d="M26.0114 18.1354L21.7913 14.3723L21.6425 20.9842L27.7123 20.7078L26.0114 18.1354Z" fill="#E27625"/>
<path d="M14.3289 29.9134L17.9856 28.1382L14.8391 25.672L14.3289 29.9134Z" fill="#E27625"/>
<path d="M22.0144 28.1382L25.6712 29.9134L25.1609 25.672L22.0144 28.1382Z" fill="#E27625"/>
<path d="M25.6712 29.9134L22.0144 28.1382L22.3014 30.5193L22.2695 31.5186L25.6712 29.9134Z" fill="#D5BFB2"/>
<path d="M14.3289 29.9134L17.7305 31.5186L17.7092 30.5193L17.9856 28.1382L14.3289 29.9134Z" fill="#D5BFB2"/>
<path d="M17.7942 24.0987L14.754 23.2057L16.9013 22.2172L17.7942 24.0987Z" fill="#233447"/>
<path d="M22.2057 24.0987L23.0986 22.2172L25.2671 23.2057L22.2057 24.0987Z" fill="#233447"/>
<path d="M14.3289 29.9133L14.8604 25.5337L11.48 25.6294L14.3289 29.9133Z" fill="#CC6228"/>
<path d="M25.1396 25.5337L25.6711 29.9133L28.5307 25.6294L25.1396 25.5337Z" fill="#CC6228"/>
<path d="M27.7123 20.7078L21.6425 20.9841L22.2058 24.0988L23.0988 22.2173L25.2673 23.2058L27.7123 20.7078Z" fill="#CC6228"/>
<path d="M14.7541 23.2058L16.9014 22.2173L17.7943 24.0988L18.3577 20.9841L12.288 20.7078L14.7541 23.2058Z" fill="#CC6228"/>
<path d="M12.288 20.7078L14.8392 25.672L14.7541 23.2058L12.288 20.7078Z" fill="#E27525"/>
<path d="M25.2672 23.2058L25.1609 25.672L27.7121 20.7078L25.2672 23.2058Z" fill="#E27525"/>
<path d="M18.3577 20.9841L17.7943 24.0988L18.5065 27.7768L18.6554 22.9294L18.3577 20.9841Z" fill="#E27525"/>
<path d="M21.6423 20.9841L21.3553 22.9188L21.4935 27.7768L22.2058 24.0988L21.6423 20.9841Z" fill="#E27525"/>
<path d="M22.2057 24.0989L21.4935 27.7769L22.0144 28.1383L25.1609 25.6721L25.2672 23.2059L22.2057 24.0989Z" fill="#F5841F"/>
<path d="M14.754 23.2059L14.8391 25.6721L17.9856 28.1383L18.5064 27.7769L17.7942 24.0989L14.754 23.2059Z" fill="#F5841F"/>
<path d="M22.2695 31.5185L22.3014 30.5192L22.0356 30.2854H17.9643L17.7092 30.5192L17.7305 31.5185L14.3289 29.9133L15.5194 30.8913L17.9324 32.5602H22.0675L24.4806 30.8913L25.6711 29.9133L22.2695 31.5185Z" fill="#C0AC9D"/>
<path d="M22.0144 28.1382L21.4935 27.7767H18.5065L17.9856 28.1382L17.7092 30.5193L17.9644 30.2854H22.0357L22.3014 30.5193L22.0144 28.1382Z" fill="#161616"/>
<path d="M32.8464 15.5416L33.75 11.1407L32.4 7.0481L22.0144 14.7549L26.0113 18.1353L31.6452 19.7829L32.889 18.3266L32.3468 17.9333L33.2185 17.1467L32.5594 16.6258L33.4205 15.9774L32.8464 15.5416Z" fill="#763E1A"/>
<path d="M6.25 11.1407L7.16417 15.5416L6.57954 15.9774L7.44058 16.6258L6.7815 17.1467L7.65317 17.9333L7.11104 18.3266L8.35475 19.7829L13.9993 18.1353L17.9856 14.7549L7.61067 7.0481L6.25 11.1407Z" fill="#763E1A"/>
<path d="M31.6453 19.783L26.0113 18.1354L27.7121 20.7079L25.1609 25.6721L28.5306 25.6296H33.5374L31.6453 19.783Z" fill="#F5841F"/>
<path d="M13.9993 18.1354L8.35469 19.783L6.47314 25.6296H11.4799L14.839 25.6721L12.2878 20.7079L13.9993 18.1354Z" fill="#F5841F"/>
<path d="M21.6423 20.984L22.0143 14.7548L23.6407 10.322H16.3591L17.9855 14.7548L18.3576 20.984L18.4958 22.9399L18.5064 27.7766H21.4934L21.5041 22.9399L21.6423 20.984Z" fill="#F5841F"/>
</svg>
