<svg width="24" height="24" viewBox="0 0 24 24" fill="none" xmlns="http://www.w3.org/2000/svg">
<path fill-rule="evenodd" clip-rule="evenodd" d="M12.0003 0.541748C5.6722 0.541748 0.541992 5.67196 0.541992 12.0001C0.541992 18.3282 5.6722 23.4584 12.0003 23.4584C18.3284 23.4584 23.4587 18.3282 23.4587 12.0001C23.4587 5.67196 18.3284 0.541748 12.0003 0.541748ZM13.042 16.1667C13.042 16.443 12.9322 16.708 12.7369 16.9033C12.5415 17.0987 12.2766 17.2084 12.0003 17.2084C11.7241 17.2084 11.4591 17.0987 11.2638 16.9033C11.0684 16.708 10.9587 16.443 10.9587 16.1667V13.0417H7.83366C7.55739 13.0417 7.29244 12.932 7.09709 12.7367C6.90174 12.5413 6.79199 12.2763 6.79199 12.0001C6.79199 11.7238 6.90174 11.4589 7.09709 11.2635C7.29244 11.0682 7.55739 10.9584 7.83366 10.9584H10.9587V7.83341C10.9587 7.55715 11.0684 7.2922 11.2638 7.09685C11.4591 6.90149 11.7241 6.79175 12.0003 6.79175C12.2766 6.79175 12.5415 6.90149 12.7369 7.09685C12.9322 7.2922 13.042 7.55715 13.042 7.83341V10.9584H16.167C16.4433 10.9584 16.7082 11.0682 16.9036 11.2635C17.0989 11.4589 17.2087 11.7238 17.2087 12.0001C17.2087 12.2763 17.0989 12.5413 16.9036 12.7367C16.7082 12.932 16.4433 13.0417 16.167 13.0417H13.042V16.1667Z" fill="white"/>
</svg>
