<svg width="26" height="26" viewBox="0 0 26 26" fill="none" xmlns="http://www.w3.org/2000/svg">
<path d="M6.76303 16.4916C6.36575 16.0945 6.21614 16.294 6.12777 16.3824C3.84002 18.6702 1.809 24.1902 2.88272 23.651C6.79147 21.6884 7.44275 22.2728 9.73042 19.9852C9.81886 19.8967 10.0222 19.7509 9.61339 19.342L6.76303 16.4916Z" fill="#B13ACD"/>
<path d="M19.0961 16.461C18.9924 16.131 19.2096 15.972 19.301 15.8734C24.3503 10.422 27.5593 3.15914 25.1812 0.780916C22.8157 -1.5845 15.7768 1.7183 10.327 6.73117C10.2191 6.83047 10.0066 7.01852 9.62646 6.93914L7.9285 6.53483C7.45707 6.42272 6.79095 6.61116 6.44828 6.95383L0.217946 13.1841C-0.124724 13.5268 -0.0133917 13.8688 0.465378 13.944L4.97158 14.6521C5.45035 14.7274 6.12241 14.5086 6.465 14.1659C6.465 14.1659 6.69751 13.9327 6.93111 14.1662C8.21992 15.4549 10.6149 17.8498 11.8427 19.0778C12.0868 19.3218 11.853 19.5539 11.853 19.5539C11.5103 19.8966 11.2915 20.5685 11.3668 21.0474L12.0749 25.5535C12.1502 26.0325 12.4921 26.1438 12.8348 25.801L19.0652 19.5706C19.4078 19.2279 19.5963 18.562 19.4841 18.0906L19.0961 16.461ZM17.7012 8.41179C16.6459 7.35651 16.6459 5.64573 17.7012 4.59061C18.7564 3.53533 20.4671 3.53533 21.5225 4.59061C22.5776 5.64565 22.5776 7.35651 21.5225 8.41171C20.4671 9.46699 18.7563 9.46699 17.7012 8.41179Z" fill="#B13ACD"/>
</svg>
