<svg width="36" height="36" viewBox="0 0 36 36" fill="none" xmlns="http://www.w3.org/2000/svg">
<path d="M35.5551 1.94486C35.2584 1.64834 34.9067 1.49959 34.5003 1.49959C34.0941 1.49959 33.7429 1.64834 33.4457 1.94486L30.399 4.96875C28.7272 3.39043 26.8128 2.1675 24.6568 1.30051C22.5009 0.43345 20.2815 0 18.0001 0C13.7031 0 9.95324 1.3006 6.74998 3.90237C3.54665 6.50381 1.43736 9.89802 0.42171 14.0858V14.2498C0.42171 14.4529 0.49584 14.6288 0.644345 14.777C0.792851 14.9255 0.968529 14.9997 1.17163 14.9997H5.83564C6.17952 14.9997 6.41373 14.8199 6.53884 14.4607C7.19501 12.8983 7.60892 11.9843 7.78099 11.7186C8.87462 9.93734 10.3277 8.5388 12.1404 7.52315C13.9531 6.50758 15.9062 5.99959 17.9998 5.99959C21.1407 5.99959 23.8672 7.07 26.1799 9.21065L22.945 12.4449C22.6489 12.7418 22.4999 13.0936 22.4999 13.4998C22.4999 13.906 22.6488 14.2576 22.945 14.5545C23.2422 14.8514 23.5939 14.9998 24.0002 14.9998H34.5003C34.9066 14.9998 35.2583 14.8514 35.5551 14.5545C35.8517 14.2576 36 13.9061 36 13.4998V2.99959C36 2.59331 35.8526 2.24187 35.5551 1.94486Z" fill="white"/>
<path d="M34.6639 21H30.1639C29.8201 21 29.5857 21.1795 29.461 21.539C28.8051 23.1016 28.3907 24.0152 28.219 24.2809C27.125 26.0618 25.6718 27.4608 23.8597 28.4764C22.0469 29.4923 20.0938 29.9997 18.0001 29.9997C16.4846 29.9997 15.0235 29.7187 13.6174 29.1563C12.2112 28.5933 10.9532 27.7963 9.84397 26.765L13.055 23.5542C13.3518 23.2576 13.5003 22.9055 13.5003 22.4995C13.5003 22.0933 13.3518 21.7413 13.055 21.4449C12.7581 21.1477 12.4067 20.999 12.0004 20.999H1.50016C1.09364 20.999 0.742035 21.1477 0.445188 21.4449C0.148341 21.7414 0 22.0934 0 22.4996V32.9998C0 33.4058 0.148341 33.7577 0.44527 34.0545C0.742364 34.3508 1.09397 34.5001 1.50024 34.5001C1.90644 34.5001 2.25788 34.3509 2.55489 34.0545L5.57828 31.0308C7.25026 32.6242 9.15275 33.8511 11.2856 34.7104C13.4185 35.5701 15.6255 35.9994 17.9066 35.9994C22.1882 35.9994 25.9224 34.6986 29.1099 32.0972C32.2974 29.4958 34.3912 26.1009 35.3916 21.9135C35.4073 21.8823 35.4147 21.8276 35.4147 21.7498C35.4147 21.5463 35.3402 21.3712 35.1918 21.2222C35.0432 21.0745 34.8673 21 34.6639 21Z" fill="white"/>
</svg>
