<svg width="40" height="40" viewBox="0 0 40 40" fill="none" xmlns="http://www.w3.org/2000/svg">
<path d="M20 40C31.0457 40 40 31.0457 40 20C40 8.9543 31.0457 0 20 0C8.9543 0 0 8.9543 0 20C0 31.0457 8.9543 40 20 40Z" fill="#F5F5F5"/>
<path d="M23.5626 17.4745V21.0275H19.7478V35.6655L18.7532 35.2948C18.2913 35.1232 17.5473 34.8308 16.6272 34.4133L16.1948 34.2158V6.11741L19.982 4.94873L23.5626 6.05284V9.88582L19.982 8.77792L19.7478 8.85048V17.4745H23.5626ZM6.66663 21.0275V9.0725L15.0709 6.47847V10.2938L10.2192 11.8V17.4745H15.0709V33.9086L13.9963 33.356C10.6526 31.6349 6.66663 28.7327 6.66663 24.6808V22.7707H10.2192V24.6808C10.2192 25.5192 10.6556 26.4002 11.5177 27.3072V21.0275H6.66663ZM24.6412 6.38762L33.2516 9.05259V21.0275H28.1962V26.213C28.1962 26.213 27.0659 27.6948 24.6443 28.9355C24.6443 27.9451 24.6412 6.38762 24.6412 6.38762ZM29.6992 17.4745V11.7827L28.1962 11.3187V17.4745H29.6992ZM29.6992 24.9442V22.7707H33.2516V24.9442C33.2516 30.9828 24.49 34.4586 21.8041 35.3803L20.8274 35.718V31.9612L21.3046 31.781C25.4829 30.2085 29.6992 27.4845 29.6992 24.9442Z" fill="black"/>
</svg>
