<svg width="209" height="60" viewBox="0 0 209 60" fill="none" xmlns="http://www.w3.org/2000/svg">
<path d="M11.0169 57.6391L11.0169 57.6391L11.0243 57.6412C15.2295 58.8273 19.5686 59.42 24.04 59.42C29.2078 59.42 33.6262 58.6398 37.2786 57.0589C40.9186 55.4834 43.6694 53.3492 45.4941 50.6402C47.3629 47.8915 48.3 44.8607 48.3 41.56C48.3 37.7386 47.2886 34.6485 45.2135 32.3476C43.2395 30.1002 40.8512 28.4534 38.0545 27.4115C35.3082 26.3883 31.7932 25.3695 27.5155 24.3535L27.5155 24.3535L27.5078 24.3518C23.4155 23.4483 20.3911 22.5513 18.4115 21.6669C17.4869 21.2159 16.8246 20.6681 16.3925 20.0374C15.9618 19.4089 15.74 18.6696 15.74 17.8C15.74 16.0604 16.4987 14.6624 18.0803 13.574C19.7184 12.4834 22.2916 11.9 25.88 11.9C30.9547 11.9 36.0439 13.3378 41.1534 16.2349L41.6487 16.5158L41.8632 15.9883L45.8632 6.14829L46.0215 5.75882L45.665 5.536C43.0539 3.90408 40.0172 2.65891 36.5613 1.79493C33.1076 0.931525 29.5736 0.5 25.96 0.5C20.7922 0.5 16.3738 1.28023 12.7214 2.86114L12.7214 2.86113L12.7189 2.86224C9.12969 4.43929 6.4069 6.60154 4.58396 9.36265C2.76736 12.0608 1.85999 15.0914 1.85999 18.44C1.85999 22.2601 2.84383 25.3728 4.86036 27.7254L4.86033 27.7254L4.86481 27.7305C6.89101 30.0305 9.30595 31.7056 12.1054 32.7485C14.8518 33.7717 18.3668 34.7905 22.6445 35.8065L22.6476 35.8072C25.4144 36.4457 27.5836 37.0283 29.1619 37.5544L29.1665 37.5559C30.7711 38.0735 32.0377 38.7636 32.9866 39.6126L32.9969 39.6218L33.0076 39.6304C33.9591 40.3916 34.42 41.3428 34.42 42.52C34.42 44.1326 33.6543 45.4512 32.0163 46.4951C30.3742 47.4884 27.7675 48.02 24.12 48.02C20.868 48.02 17.6131 47.4956 14.3535 46.4441C11.0895 45.3912 8.28594 44.0003 5.93567 42.2768L5.43787 41.9117L5.18417 42.4745L0.784169 52.2345L0.62125 52.5959L0.935952 52.8369C3.50468 54.8045 6.87149 56.4008 11.0169 57.6391ZM49.0544 12.52V13.02H49.5544H66.9744V57.96V58.46H67.4744H80.4344H80.9344V57.96V13.02H98.3544H98.8544V12.52V1.96V1.46H98.3544H49.5544H49.0544V1.96V12.52ZM149.187 47.56V47.06H148.687H118.707V35.1H144.207H144.707V34.6V24.52V24.02H144.207H118.707V12.86H147.647H148.147V12.36V1.96V1.46H147.647H105.327H104.827V1.96V57.96V58.46H105.327H148.687H149.187V57.96V47.56ZM205.019 33.3522L205.021 33.3489C207.051 30.1659 208.059 26.4702 208.059 22.28C208.059 18.038 207.052 14.3403 205.019 11.2078C202.988 8.07862 200.083 5.67268 196.326 3.9846C192.62 2.29555 188.253 1.46 183.239 1.46H158.999H158.499V1.96V57.96V58.46H158.999H171.959H172.459V57.96V43.02H183.239C188.252 43.02 192.617 42.2116 196.321 40.5775L196.324 40.5761C200.082 38.888 202.987 36.4818 205.019 33.3522ZM191.077 15.4625L191.083 15.4674C192.97 17.0064 193.939 19.2498 193.939 22.28C193.939 25.2518 192.973 27.5 191.08 29.0952C189.177 30.6459 186.35 31.46 182.519 31.46H172.459V13.02H182.519C186.349 13.02 189.175 13.8603 191.077 15.4625Z" stroke="url(#paint0_linear_149_602)" stroke-opacity="0.7"/>
<defs>
<linearGradient id="paint0_linear_149_602" x1="105" y1="-13.04" x2="105" y2="51.46" gradientUnits="userSpaceOnUse">
<stop stop-color="white"/>
<stop offset="1" stop-color="white" stop-opacity="0"/>
</linearGradient>
</defs>
</svg>
