<svg width="189" height="58" viewBox="0 0 189 58" fill="none" xmlns="http://www.w3.org/2000/svg">
<path d="M0.820068 11.56V12.06H1.32007H18.7401V57V57.5H19.2401H32.2001H32.7001V57V12.06H50.1201H50.6201V11.56V1V0.5H50.1201H1.32007H0.820068V1V11.56ZM57.0932 0.5H56.5932V1V57V57.5H57.0932H70.0532H70.5532V57V1V0.5H70.0532H57.0932ZM127.203 46.6V46.1H126.703H96.7232V34.14H122.223H122.723V33.64V23.56V23.06H122.223H96.7232V11.9H125.663H126.163V11.4V1V0.5H125.663H83.3432H82.8432V1V57V57.5H83.3432H126.703H127.203V57V46.6ZM172.284 57.2846L172.433 57.5H172.695H186.615H187.574L187.025 56.7139L174.81 39.2087C178.3 37.5885 181.02 35.3196 182.952 32.3965C185.04 29.2635 186.075 25.5642 186.075 21.32C186.075 17.078 185.068 13.3803 183.034 10.2478C181.003 7.11863 178.098 4.7127 174.342 3.02462C170.636 1.33556 166.269 0.5 161.255 0.5H137.015H136.515V1V57V57.5H137.015H149.975H150.475V57V41.9H161.633L172.284 57.2846ZM169.093 14.5025L169.099 14.5074C170.985 16.0464 171.955 18.2898 171.955 21.32C171.955 24.2933 170.987 26.5422 169.093 28.1375C167.19 29.7397 164.364 30.58 160.535 30.58H150.475V12.06H160.535C164.364 12.06 167.19 12.9003 169.093 14.5025Z" stroke="url(#paint0_linear_149_603)" stroke-opacity="0.7"/>
<defs>
<linearGradient id="paint0_linear_149_603" x1="95.5" y1="-14" x2="95.5" y2="56" gradientUnits="userSpaceOnUse">
<stop stop-color="white"/>
<stop offset="1" stop-color="white" stop-opacity="0"/>
</linearGradient>
</defs>
</svg>
