<svg width="132" height="29" viewBox="0 0 132 29" fill="none" xmlns="http://www.w3.org/2000/svg">
<path d="M16.232 18.8H7.132L5.396 23H0.748L9.484 3.4H13.964L22.728 23H17.968L16.232 18.8ZM14.804 15.356L11.696 7.852L8.588 15.356H14.804ZM39.8568 7.936V20.48C39.8568 23.2427 39.1381 25.296 37.7008 26.64C36.2634 27.984 34.1634 28.656 31.4008 28.656C29.9448 28.656 28.5634 28.4787 27.2568 28.124C25.9501 27.7693 24.8674 27.256 24.0088 26.584L25.7448 23.448C26.3794 23.9707 27.1821 24.3813 28.1528 24.68C29.1234 24.9973 30.0941 25.156 31.0648 25.156C32.5768 25.156 33.6874 24.8107 34.3968 24.12C35.1248 23.448 35.4888 22.4213 35.4888 21.04V20.396C34.3501 21.6467 32.7634 22.272 30.7288 22.272C29.3474 22.272 28.0781 21.9733 26.9208 21.376C25.7821 20.76 24.8768 19.9013 24.2048 18.8C23.5328 17.6987 23.1968 16.4293 23.1968 14.992C23.1968 13.5547 23.5328 12.2853 24.2048 11.184C24.8768 10.0827 25.7821 9.23333 26.9208 8.636C28.0781 8.02 29.3474 7.712 30.7288 7.712C32.9128 7.712 34.5741 8.43067 35.7128 9.868V7.936H39.8568ZM31.5968 18.688C32.7541 18.688 33.6968 18.352 34.4248 17.68C35.1714 16.9893 35.5448 16.0933 35.5448 14.992C35.5448 13.8907 35.1714 13.004 34.4248 12.332C33.6968 11.6413 32.7541 11.296 31.5968 11.296C30.4394 11.296 29.4874 11.6413 28.7408 12.332C27.9941 13.004 27.6208 13.8907 27.6208 14.992C27.6208 16.0933 27.9941 16.9893 28.7408 17.68C29.4874 18.352 30.4394 18.688 31.5968 18.688ZM43.9223 7.936H48.2903V23H43.9223V7.936ZM46.1063 5.836C45.3036 5.836 44.6503 5.60267 44.1463 5.136C43.6423 4.66933 43.3903 4.09067 43.3903 3.4C43.3903 2.70933 43.6423 2.13067 44.1463 1.664C44.6503 1.19733 45.3036 0.963998 46.1063 0.963998C46.9089 0.963998 47.5623 1.188 48.0663 1.636C48.5703 2.084 48.8223 2.644 48.8223 3.316C48.8223 4.044 48.5703 4.65067 48.0663 5.136C47.5623 5.60267 46.9089 5.836 46.1063 5.836ZM52.3441 2.224H56.7121V23H52.3441V2.224ZM75.522 15.524C75.522 15.58 75.494 15.972 75.438 16.7H64.042C64.2473 17.6333 64.7327 18.3707 65.498 18.912C66.2633 19.4533 67.2153 19.724 68.354 19.724C69.138 19.724 69.8287 19.612 70.426 19.388C71.042 19.1453 71.6113 18.772 72.134 18.268L74.458 20.788C73.0393 22.412 70.9673 23.224 68.242 23.224C66.5433 23.224 65.0407 22.8973 63.734 22.244C62.4273 21.572 61.4193 20.648 60.71 19.472C60.0007 18.296 59.646 16.9613 59.646 15.468C59.646 13.9933 59.9913 12.668 60.682 11.492C61.3913 10.2973 62.3527 9.37333 63.566 8.72C64.798 8.048 66.17 7.712 67.682 7.712C69.1567 7.712 70.4913 8.02933 71.686 8.664C72.8807 9.29867 73.814 10.2133 74.486 11.408C75.1767 12.584 75.522 13.956 75.522 15.524ZM67.71 11.016C66.7207 11.016 65.89 11.296 65.218 11.856C64.546 12.416 64.1353 13.1813 63.986 14.152H71.406C71.2567 13.2 70.846 12.444 70.174 11.884C69.502 11.3053 68.6807 11.016 67.71 11.016ZM87.2221 3.4C88.9581 3.4 90.4607 3.68933 91.7301 4.268C93.0181 4.84667 94.0074 5.668 94.6981 6.732C95.3887 7.796 95.7341 9.056 95.7341 10.512C95.7341 11.9493 95.3887 13.2093 94.6981 14.292C94.0074 15.356 93.0181 16.1773 91.7301 16.756C90.4607 17.316 88.9581 17.596 87.2221 17.596H83.2741V23H78.7381V3.4H87.2221ZM86.9701 13.9C88.3327 13.9 89.3687 13.6107 90.0781 13.032C90.7874 12.4347 91.1421 11.5947 91.1421 10.512C91.1421 9.41067 90.7874 8.57067 90.0781 7.992C89.3687 7.39467 88.3327 7.096 86.9701 7.096H83.2741V13.9H86.9701ZM104.604 7.712C106.937 7.712 108.729 8.272 109.98 9.392C111.23 10.4933 111.856 12.164 111.856 14.404V23H107.768V21.124C106.946 22.524 105.416 23.224 103.176 23.224C102.018 23.224 101.01 23.028 100.152 22.636C99.3117 22.244 98.6677 21.7027 98.2197 21.012C97.7717 20.3213 97.5477 19.5373 97.5477 18.66C97.5477 17.26 98.0704 16.1587 99.1157 15.356C100.18 14.5533 101.813 14.152 104.016 14.152H107.488C107.488 13.2 107.198 12.472 106.62 11.968C106.041 11.4453 105.173 11.184 104.016 11.184C103.213 11.184 102.42 11.3147 101.636 11.576C100.87 11.8187 100.217 12.1547 99.6757 12.584L98.1077 9.532C98.9291 8.95333 99.9091 8.50533 101.048 8.188C102.205 7.87067 103.39 7.712 104.604 7.712ZM104.268 20.284C105.014 20.284 105.677 20.116 106.256 19.78C106.834 19.4253 107.245 18.912 107.488 18.24V16.7H104.492C102.7 16.7 101.804 17.288 101.804 18.464C101.804 19.024 102.018 19.472 102.448 19.808C102.896 20.1253 103.502 20.284 104.268 20.284ZM131.317 2.224V23H127.145V21.264C126.062 22.5707 124.494 23.224 122.441 23.224C121.022 23.224 119.734 22.9067 118.577 22.272C117.438 21.6373 116.542 20.732 115.889 19.556C115.236 18.38 114.909 17.0173 114.909 15.468C114.909 13.9187 115.236 12.556 115.889 11.38C116.542 10.204 117.438 9.29867 118.577 8.664C119.734 8.02933 121.022 7.712 122.441 7.712C124.364 7.712 125.866 8.31867 126.949 9.532V2.224H131.317ZM123.197 19.64C124.298 19.64 125.213 19.2667 125.941 18.52C126.669 17.7547 127.033 16.7373 127.033 15.468C127.033 14.1987 126.669 13.1907 125.941 12.444C125.213 11.6787 124.298 11.296 123.197 11.296C122.077 11.296 121.153 11.6787 120.425 12.444C119.697 13.1907 119.333 14.1987 119.333 15.468C119.333 16.7373 119.697 17.7547 120.425 18.52C121.153 19.2667 122.077 19.64 123.197 19.64Z" fill="url(#paint0_linear_35_173)"/>
<defs>
<linearGradient id="paint0_linear_35_173" x1="-77.5" y1="-11.5" x2="143" y2="30" gradientUnits="userSpaceOnUse">
<stop stop-color="#323BE0"/>
<stop offset="1" stop-color="#B13ACD"/>
</linearGradient>
</defs>
</svg>
