<svg width="8" height="6" viewBox="0 0 8 6" fill="none" xmlns="http://www.w3.org/2000/svg">
<path d="M7.87213 1.03226L7.61008 0.768387C7.52761 0.68598 7.41788 0.640581 7.30061 0.640581C7.18341 0.640581 7.07355 0.68598 6.99108 0.768387L4.00179 3.75781L1.00905 0.76507C0.926707 0.682663 0.816852 0.637329 0.699648 0.637329C0.582444 0.637329 0.472524 0.682663 0.390117 0.76507L0.128001 1.02732C-0.042667 1.19785 -0.042667 1.47564 0.128001 1.64618L3.69122 5.22221C3.77356 5.30455 3.88328 5.36257 4.00153 5.36257H4.00289C4.12016 5.36257 4.22989 5.30449 4.31223 5.22221L7.87213 1.65587C7.9546 1.57353 7.99987 1.46049 8 1.34329C8 1.22602 7.9546 1.11454 7.87213 1.03226Z" fill="#B13ACD"/>
</svg>
