<svg width="40" height="40" viewBox="0 0 40 40" fill="none" xmlns="http://www.w3.org/2000/svg">
<path d="M30 0H10C4.47715 0 0 4.47715 0 10V30C0 35.5229 4.47715 40 10 40H30C35.5229 40 40 35.5229 40 30V10C40 4.47715 35.5229 0 30 0Z" fill="#1E2026"/>
<path d="M20.3571 5L12.4629 9.59512L15.3652 11.2927L20.3571 8.39513L25.349 11.2927L28.2513 9.59512L20.3571 5Z" fill="#F0B90B"/>
<path d="M25.349 13.6926L28.2513 15.3903V18.7854L23.2593 21.6829V27.478L20.3571 29.1756L17.4548 27.478V21.6829L12.4629 18.7854V15.3903L15.3652 13.6926L20.3571 16.5903L25.349 13.6926Z" fill="#F0B90B"/>
<path d="M28.2514 21.1854V24.5805L25.349 26.278V22.8829L28.2514 21.1854Z" fill="#F0B90B"/>
<path d="M25.3201 28.678L30.3119 25.7805V19.9853L33.2142 18.2877V27.478L25.3201 32.0731V28.678Z" fill="#F0B90B"/>
<path d="M30.312 14.1903L27.4098 12.4927L30.312 10.7952L33.2143 12.4927V15.8878L30.312 17.5854V14.1903Z" fill="#F0B90B"/>
<path d="M17.4548 33.3025V29.9073L20.3571 31.6048L23.2593 29.9073V33.3025L20.3571 35L17.4548 33.3025Z" fill="#F0B90B"/>
<path d="M15.3652 26.278L12.4629 24.5805V21.1854L15.3652 22.8829V26.278Z" fill="#F0B90B"/>
<path d="M20.3571 14.1903L17.4548 12.4927L20.3571 10.7952L23.2593 12.4927L20.3571 14.1903Z" fill="#F0B90B"/>
<path d="M13.3046 12.4927L10.4023 14.1903V17.5854L7.5 15.8878V12.4927L10.4023 10.7952L13.3046 12.4927Z" fill="#F0B90B"/>
<path d="M7.5 18.2877L10.4023 19.9853V25.7805L15.3943 28.678V32.0731L7.5 27.478V18.2877Z" fill="#F0B90B"/>
</svg>
