<svg width="40" height="40" viewBox="0 0 40 40" fill="none" xmlns="http://www.w3.org/2000/svg">
<path d="M40 20C40 8.95429 31.0457 0 20 0C8.95429 0 0 8.95429 0 20C0 31.0457 8.95429 40 20 40C31.0457 40 40 31.0457 40 20Z" fill="#3389FB"/>
<path d="M12.372 14.7602C16.5849 10.6354 23.4152 10.6354 27.6281 14.7602L28.1351 15.2566C28.3458 15.4628 28.3458 15.7972 28.1351 16.0034L26.4007 17.7016C26.2954 17.8047 26.1246 17.8047 26.0193 17.7016L25.3216 17.0184C22.3826 14.1409 17.6175 14.1409 14.6785 17.0184L13.9313 17.75C13.826 17.8532 13.6552 17.8532 13.5499 17.75L11.8155 16.0519C11.6048 15.8457 11.6048 15.5113 11.8155 15.305L12.372 14.7602ZM31.2151 18.2721L32.7587 19.7835C32.9694 19.9897 32.9694 20.3241 32.7587 20.5303L25.7983 27.3453C25.5877 27.5515 25.2462 27.5515 25.0355 27.3453L20.0955 22.5085C20.0428 22.4569 19.9574 22.4569 19.9047 22.5085L14.9647 27.3453C14.7541 27.5515 14.4126 27.5515 14.202 27.3453L7.24137 20.5302C7.03071 20.324 7.03071 19.9897 7.24137 19.7834L8.785 18.272C8.99567 18.0658 9.33717 18.0658 9.54779 18.272L14.488 23.1089C14.5406 23.1604 14.626 23.1604 14.6787 23.1089L19.6185 18.272C19.8292 18.0658 20.1707 18.0658 20.3814 18.272L25.3215 23.1089C25.3742 23.1604 25.4595 23.1604 25.5122 23.1089L30.4523 18.2721C30.6629 18.0659 31.0044 18.0659 31.2151 18.2721Z" fill="white"/>
</svg>
