<svg width="28" height="28" viewBox="0 0 28 28" fill="none" xmlns="http://www.w3.org/2000/svg">
<path d="M14 0C6.26803 0 0 6.26803 0 14C0 21.732 6.26803 28 14 28C21.732 28 28 21.732 28 14C28 6.26803 21.732 0 14 0ZM20.9881 11.0887L12.6907 19.3861C12.3489 19.7279 11.901 19.8988 11.4533 19.8988C11.0055 19.8988 10.5575 19.7279 10.2159 19.3861L7.0119 16.1821C6.32847 15.4988 6.32847 14.3907 7.0119 13.7073C7.69522 13.024 8.80332 13.024 9.48675 13.7073L11.4533 15.6738L18.5134 8.61373C19.1967 7.93042 20.3048 7.93042 20.9882 8.61373C21.6716 9.29717 21.6717 10.4053 20.9881 11.0887Z" fill="#B13ACD"/>
</svg>
