<svg width="22" height="24" viewBox="0 0 22 24" fill="none" xmlns="http://www.w3.org/2000/svg">
<path fill-rule="evenodd" clip-rule="evenodd" d="M11.0014 15.7253L17.9061 22.7947C18.5987 23.5093 19.0494 23.5167 19.7547 22.7947L21.1401 21.376C21.8187 20.6813 21.8647 20.2253 21.1401 19.4833L13.8301 12L21.1407 4.51667C21.8254 3.81334 21.8387 3.33867 21.1407 2.62334L19.7554 1.20534C19.0367 0.469341 18.5927 0.503341 17.9067 1.20534L11.0014 8.27467L4.09672 1.20601C3.41072 0.504008 2.96672 0.470008 2.24805 1.20601L0.862718 2.62401C0.164051 3.33934 0.176717 3.81401 0.862718 4.51734L8.17272 12L0.862718 19.4833C0.138051 20.2253 0.176717 20.6813 0.862718 21.376L2.24738 22.7947C2.94672 23.5167 3.39738 23.5093 4.09605 22.7947L11.0014 15.7253Z" fill="white"/>
</svg>
