<svg width="28" height="28" viewBox="0 0 28 28" fill="none" xmlns="http://www.w3.org/2000/svg">
<path d="M14 0C6.28041 0 0 6.28039 0 14C0 21.7196 6.28041 28 14 28C21.7197 28 28 21.7196 28 14C28 6.28039 21.7197 0 14 0ZM13.735 12.2866H14.2651C16.3707 12.2866 18.0838 13.9997 18.0838 16.1053C18.0838 17.8315 16.9323 19.293 15.3574 19.7641V22.4655H12.6427V19.7641C11.0678 19.293 9.91629 17.8315 9.91629 16.1053H12.631C12.631 16.7141 13.1263 17.2094 13.735 17.2094H14.2651C14.8738 17.2094 15.3691 16.7141 15.3691 16.1053C15.3691 15.4966 14.8738 15.0013 14.2651 15.0013H13.735C11.6294 15.0013 9.91629 13.2882 9.91629 11.1825C9.91629 9.45647 11.0678 7.9949 12.6427 7.52381V4.82239H15.3574V7.52381C16.9323 7.9949 18.0838 9.45639 18.0838 11.1825H15.3691C15.3691 10.5738 14.8738 10.0785 14.2651 10.0785H13.735C13.1263 10.0785 12.631 10.5737 12.631 11.1825C12.631 11.7914 13.1262 12.2866 13.735 12.2866Z" fill="#B13ACD"/>
</svg>
