<svg width="40" height="40" viewBox="0 0 40 40" fill="none" xmlns="http://www.w3.org/2000/svg">
<path d="M20 40C31.0457 40 40 31.0457 40 20C40 8.9543 31.0457 0 20 0C8.9543 0 0 8.9543 0 20C0 31.0457 8.9543 40 20 40Z" fill="white"/>
<path fill-rule="evenodd" clip-rule="evenodd" d="M27.6906 18.2129C27.0383 17.5606 27.0383 16.503 27.6906 15.8507C28.3429 15.1985 29.4004 15.1985 30.0527 15.8507C30.705 16.503 30.705 17.5606 30.0527 18.2129C29.4004 18.8652 28.3429 18.8652 27.6906 18.2129ZM22.0806 23.8229C21.5914 23.3337 21.5914 22.5405 22.0806 22.0513C22.5698 21.5621 23.3629 21.5621 23.8522 22.0513C24.3414 22.5405 24.3414 23.3337 23.8522 23.8229C23.3629 24.3121 22.5698 24.3121 22.0806 23.8229ZM30.9385 20.8702C30.4493 20.381 30.4493 19.5879 30.9385 19.0987C31.4277 18.6095 32.2208 18.6095 32.71 19.0987C33.1992 19.5879 33.1992 20.381 32.71 20.8702C32.2208 21.3595 31.4277 21.3595 30.9385 20.8702ZM27.9859 23.8229C27.4967 23.3337 27.4967 22.5405 27.9859 22.0513C28.475 21.5621 29.2682 21.5621 29.7574 22.0513C30.2466 22.5405 30.2466 23.3337 29.7574 23.8229C29.2682 24.3121 28.475 24.3121 27.9859 23.8229ZM34.1864 23.5276C33.8602 23.2015 33.8602 22.6727 34.1864 22.3465C34.5125 22.0204 35.0413 22.0204 35.3674 22.3465C35.6935 22.6727 35.6935 23.2015 35.3674 23.5276C35.0413 23.8537 34.5125 23.8537 34.1864 23.5276ZM31.2337 26.4802C30.9076 26.1541 30.9076 25.6253 31.2337 25.2992C31.5599 24.973 32.0887 24.973 32.4148 25.2992C32.7409 25.6253 32.7409 26.1541 32.4148 26.4802C32.0887 26.8064 31.5599 26.8064 31.2337 26.4802ZM24.7379 21.1655C24.0857 20.5132 24.0857 19.4557 24.7379 18.8034C25.3902 18.1511 26.4478 18.1511 27.1001 18.8034C27.7523 19.4557 27.7523 20.5132 27.1001 21.1655C26.4478 21.8178 25.3902 21.8178 24.7379 21.1655ZM24.7379 15.2602C24.0857 14.608 24.0857 13.5504 24.7379 12.8981C25.3902 12.2459 26.4478 12.2459 27.1001 12.8981C27.7523 13.5504 27.7523 14.608 27.1001 15.2602C26.4478 15.9125 25.3902 15.9125 24.7379 15.2602ZM21.7853 18.2129C21.1331 17.5606 21.1331 16.503 21.7853 15.8507C22.4376 15.1985 23.4952 15.1985 24.1474 15.8507C24.7997 16.503 24.7997 17.5606 24.1474 18.2129C23.4952 18.8652 22.4376 18.8652 21.7853 18.2129ZM15.8526 18.2129C15.2004 17.5606 15.2004 16.503 15.8526 15.8507C16.5049 15.1985 17.5624 15.1985 18.2147 15.8507C18.867 16.503 18.867 17.5606 18.2147 18.2129C17.5624 18.8652 16.5049 18.8652 15.8526 18.2129ZM10.2427 23.8229C9.75345 23.3337 9.75345 22.5405 10.2427 22.0513C10.7319 21.5621 11.525 21.5621 12.0142 22.0513C12.5034 22.5405 12.5034 23.3337 12.0142 23.8229C11.525 24.3121 10.7319 24.3121 10.2427 23.8229ZM19.1005 20.8702C18.6113 20.381 18.6113 19.5879 19.1005 19.0987C19.5897 18.6095 20.3829 18.6095 20.8721 19.0987C21.3613 19.5879 21.3613 20.381 20.8721 20.8702C20.3829 21.3595 19.5897 21.3595 19.1005 20.8702ZM16.1479 23.8229C15.6587 23.3337 15.6587 22.5405 16.1479 22.0513C16.6371 21.5621 17.4303 21.5621 17.9195 22.0513C18.4087 22.5405 18.4087 23.3337 17.9195 23.8229C17.4303 24.3121 16.6371 24.3121 16.1479 23.8229ZM4.63266 23.5276C4.30653 23.2015 4.30653 22.6727 4.63266 22.3465C4.95878 22.0204 5.48757 22.0204 5.8137 22.3465C6.13986 22.6727 6.13986 23.2015 5.8137 23.5276C5.48757 23.8537 4.95878 23.8537 4.63266 23.5276ZM7.58528 26.4802C7.25916 26.1541 7.25916 25.6253 7.58528 25.2992C7.91141 24.973 8.4402 24.973 8.76632 25.2992C9.09249 25.6253 9.09249 26.1541 8.76632 26.4802C8.4402 26.8064 7.91141 26.8064 7.58528 26.4802ZM19.3958 26.4802C19.0697 26.1541 19.0697 25.6253 19.3958 25.2992C19.7219 24.973 20.2507 24.973 20.5768 25.2992C20.903 25.6253 20.903 26.1541 20.5768 26.4802C20.2507 26.8064 19.7219 26.8064 19.3958 26.4802ZM7.29003 20.8702C6.80082 20.381 6.80082 19.5879 7.29003 19.0987C7.77924 18.6095 8.57241 18.6095 9.06161 19.0987C9.55078 19.5879 9.55078 20.381 9.06161 20.8702C8.57241 21.3595 7.77924 21.3595 7.29003 20.8702ZM12.9 21.1655C12.2477 20.5132 12.2477 19.4557 12.9 18.8034C13.5523 18.1511 14.6098 18.1511 15.2621 18.8034C15.9144 19.4557 15.9144 20.5132 15.2621 21.1655C14.6098 21.8178 13.5523 21.8178 12.9 21.1655ZM12.9 15.2602C12.2477 14.608 12.2477 13.5504 12.9 12.8981C13.5523 12.2459 14.6098 12.2459 15.2621 12.8981C15.9144 13.5504 15.9144 14.608 15.2621 15.2602C14.6098 15.9125 13.5523 15.9125 12.9 15.2602ZM9.94736 18.2129C9.29511 17.5606 9.29511 16.503 9.94736 15.8507C10.5997 15.1985 11.6572 15.1985 12.3095 15.8507C12.9617 16.503 12.9617 17.5606 12.3095 18.2129C11.6572 18.8652 10.5997 18.8652 9.94736 18.2129Z" fill="#1D222A"/>
</svg>
