<svg width="40" height="40" viewBox="0 0 40 40" fill="none" xmlns="http://www.w3.org/2000/svg">
<path d="M20 40C31.0457 40 40 31.0457 40 20C40 8.9543 31.0457 0 20 0C8.9543 0 0 8.9543 0 20C0 31.0457 8.9543 40 20 40Z" fill="white"/>
<path d="M18.4703 14.7312V9.04736H7.95523C7.74206 9.04736 7.59998 9.18945 7.59998 9.40261V17.431C7.59998 17.6442 7.74206 17.7862 7.95523 17.7862H12.0049V32.4222C12.0049 32.6353 12.1471 32.7774 12.3602 32.7774H18.9676C19.1808 32.7774 19.3229 32.6353 19.3229 32.4222V14.7312H18.4703Z" fill="#29AEFF"/>
<path d="M25.7883 7.19995H23.2306H16.3389C16.1258 7.19995 15.9836 7.34203 15.9836 7.5552V30.5747C15.9836 30.7879 16.1258 30.93 16.3389 30.93H22.9463C23.1595 30.93 23.3016 30.7879 23.3016 30.5747V24.7488H25.8593C30.6906 24.7488 34.5982 20.8412 34.5982 16.0099C34.5982 11.1076 30.6196 7.19995 25.7883 7.19995Z" fill="#2761E7"/>
</svg>
