<svg width="24" height="25" viewBox="0 0 24 25" fill="none" xmlns="http://www.w3.org/2000/svg">
<path d="M5.29254 5.99859H6.50066C6.89853 5.99859 7.2801 6.15665 7.56143 6.43798C7.84277 6.71931 8.00082 7.10088 8.00082 7.49875C8.00082 7.89661 7.84277 8.27818 7.56143 8.55952C7.2801 8.84085 6.89853 8.9989 6.50066 8.9989H1.50015C1.10229 8.9989 0.720718 8.84085 0.439385 8.55952C0.158051 8.27818 0 7.89661 0 7.49875V2.49824C8.38439e-09 2.10037 0.158051 1.7188 0.439385 1.43747C0.720718 1.15613 1.10229 0.998083 1.50015 0.998083C1.89802 0.998083 2.27959 1.15613 2.56092 1.43747C2.84226 1.7188 3.00031 2.10037 3.00031 2.49824V4.0604C4.81 2.00968 7.26586 0.638614 9.96118 0.174257C12.6565 -0.290101 15.4296 0.180109 17.8212 1.50702C20.2128 2.83392 22.0794 4.93792 23.1119 7.47057C24.1445 10.0032 24.2809 12.8126 23.4988 15.4334C22.7166 18.0542 21.0627 20.3292 18.811 21.8817C16.5593 23.4342 13.8448 24.171 11.1172 23.9701C8.38955 23.7691 5.81235 22.6426 3.8124 20.7769C1.81246 18.9113 0.509745 16.4185 0.120012 13.7114C0.0637805 13.3172 0.166428 12.9169 0.405374 12.5984C0.64432 12.2799 0.999991 12.0694 1.39414 12.0132C1.78829 11.957 2.18864 12.0596 2.50711 12.2986C2.82558 12.5375 3.03608 12.8932 3.09232 13.2873C3.38515 15.3153 4.36099 17.1827 5.85862 18.581C7.35625 19.9794 9.28608 20.8251 11.3293 20.9784C13.3726 21.1316 15.407 20.5834 17.0965 19.4241C18.786 18.2648 20.0295 16.5639 20.6216 14.6024C21.2137 12.6408 21.119 10.536 20.3532 8.63551C19.5873 6.73505 18.1961 5.15269 16.4093 4.14982C14.6225 3.14695 12.5471 2.78357 10.5259 3.11971C8.50465 3.45585 6.65855 4.4714 5.29254 5.99859ZM11.5012 5.99859C11.899 5.99859 12.2806 6.15665 12.5619 6.43798C12.8433 6.71931 13.0013 7.10088 13.0013 7.49875V10.9991H14.5015C14.8993 10.9991 15.2809 11.1572 15.5623 11.4385C15.8436 11.7198 16.0016 12.1014 16.0016 12.4993C16.0016 12.8971 15.8436 13.2787 15.5623 13.56C15.2809 13.8414 14.8993 13.9994 14.5015 13.9994H11.5012C11.1033 13.9994 10.7217 13.8414 10.4404 13.56C10.1591 13.2787 10.001 12.8971 10.001 12.4993V7.49875C10.001 7.10088 10.1591 6.71931 10.4404 6.43798C10.7217 6.15665 11.1033 5.99859 11.5012 5.99859Z" fill="white"/>
</svg>
