<svg width="24" height="24" viewBox="0 0 24 24" fill="none" xmlns="http://www.w3.org/2000/svg">
<path d="M14.1234 23.6667H9.87669C9.61061 23.6668 9.35251 23.5758 9.1452 23.4091C8.93788 23.2423 8.7938 23.0096 8.73686 22.7497L8.26203 20.5517C7.6286 20.2742 7.02797 19.9271 6.47119 19.5169L4.32803 20.1994C4.07435 20.2803 3.80064 20.272 3.55233 20.1758C3.30403 20.0797 3.09609 19.9015 2.96303 19.6709L0.835028 15.9947C0.703364 15.7639 0.653941 15.4952 0.694844 15.2326C0.735747 14.97 0.864555 14.7291 1.06019 14.5492L2.72269 13.0325C2.64709 12.3455 2.64709 11.6522 2.72269 10.9652L1.06019 9.45204C0.864278 9.27211 0.735295 9.03096 0.694385 8.76812C0.653475 8.50528 0.703065 8.23634 0.835028 8.00537L2.95836 4.32687C3.09142 4.09624 3.29937 3.91806 3.54767 3.82193C3.79597 3.72579 4.06968 3.71748 4.32336 3.79837L6.46653 4.48087C6.75119 4.27087 7.04753 4.07487 7.35319 3.89754C7.64836 3.73187 7.95169 3.58137 8.26203 3.44721L8.73803 1.25154C8.79469 0.991605 8.9385 0.758843 9.1456 0.591848C9.3527 0.424852 9.61065 0.333654 9.87669 0.333374H14.1234C14.3894 0.333654 14.6474 0.424852 14.8545 0.591848C15.0616 0.758843 15.2054 0.991605 15.262 1.25154L15.7427 3.44837C16.0694 3.59304 16.389 3.75521 16.6982 3.93604C16.9864 4.10287 17.2652 4.28604 17.5335 4.48321L19.6779 3.80071C19.9314 3.72011 20.2048 3.72857 20.4529 3.8247C20.7009 3.92082 20.9087 4.09882 21.0417 4.32921L23.165 8.00771C23.4357 8.48254 23.3424 9.08337 22.9399 9.45321L21.2774 10.9699C21.353 11.6569 21.353 12.3502 21.2774 13.0372L22.9399 14.5539C23.3424 14.9249 23.4357 15.5245 23.165 15.9994L21.0417 19.6779C20.9086 19.9085 20.7007 20.0867 20.4524 20.1828C20.2041 20.279 19.9304 20.2873 19.6767 20.2064L17.5335 19.5239C16.9772 19.9338 16.3769 20.2805 15.7439 20.5575L15.262 22.7497C15.2051 23.0094 15.0612 23.2419 14.8541 23.4087C14.6471 23.5755 14.3892 23.6665 14.1234 23.6667ZM11.9954 7.33337C10.7577 7.33337 9.5707 7.82504 8.69553 8.70021C7.82036 9.57538 7.32869 10.7624 7.32869 12C7.32869 13.2377 7.82036 14.4247 8.69553 15.2999C9.5707 16.175 10.7577 16.6667 11.9954 16.6667C13.233 16.6667 14.42 16.175 15.2952 15.2999C16.1704 14.4247 16.662 13.2377 16.662 12C16.662 10.7624 16.1704 9.57538 15.2952 8.70021C14.42 7.82504 13.233 7.33337 11.9954 7.33337Z" fill="white"/>
</svg>
