<svg width="40" height="40" viewBox="0 0 40 40" fill="none" xmlns="http://www.w3.org/2000/svg">
<g clip-path="url(#clip0_136_2746)">
<path d="M20.002 40.004C31.0488 40.004 40.004 31.0488 40.004 20.002C40.004 8.95521 31.0488 0 20.002 0C8.95521 0 0 8.95521 0 20.002C0 31.0488 8.95521 40.004 20.002 40.004Z" fill="#3375BB"/>
<path d="M20.002 8.53844L20.5492 7.8264C20.3917 7.70535 20.1986 7.63977 20 7.63977C19.8014 7.63977 19.6084 7.70535 19.4509 7.8264L20.002 8.53844ZM29.4077 11.3022H30.3047C30.3064 11.1832 30.2844 11.0651 30.24 10.9546C30.1957 10.8441 30.1299 10.7435 30.0465 10.6586C29.9631 10.5737 29.8637 10.5062 29.7541 10.4599C29.6444 10.4136 29.5267 10.3895 29.4077 10.389V11.3022ZM20.002 30.5157L19.5032 31.264C19.6502 31.3624 19.8231 31.4149 20 31.4149C20.1769 31.4149 20.3498 31.3624 20.4969 31.264L20.002 30.5157ZM10.6044 11.3022V10.4011C10.4854 10.4016 10.3677 10.4257 10.258 10.472C10.1484 10.5182 10.049 10.5858 9.96557 10.6707C9.88215 10.7556 9.8164 10.8562 9.77207 10.9666C9.72773 11.0771 9.70573 11.1953 9.70736 11.3143L10.6044 11.3022ZM19.4549 9.24648C23.5261 12.4005 28.1887 12.1993 29.4116 12.1993V10.4011C28.1444 10.4011 24.0853 10.562 20.5612 7.8264L19.4549 9.24648ZM28.5145 11.2861C28.4461 15.4539 28.2691 18.3946 27.9312 20.571C27.5933 22.7474 27.1266 24.0187 26.5111 24.9278C25.8956 25.8371 25.1071 26.4284 23.9525 27.1164C22.7979 27.8043 21.3215 28.5686 19.5032 29.7715L20.5169 31.264C22.2388 30.1174 23.6709 29.3853 24.8899 28.6571C26.1182 27.9882 27.184 27.057 28.0117 25.9296C28.8163 24.7227 29.3674 23.1135 29.7214 20.8446C30.0754 18.5756 30.2565 15.5223 30.3249 11.3143L28.5145 11.2861ZM20.5169 29.7715C18.7107 28.5646 17.2383 27.8163 16.0917 27.1203C14.9452 26.4244 14.1567 25.8692 13.5372 24.9278C12.9177 23.9865 12.4148 22.7353 12.0688 20.571C11.7228 18.4067 11.5699 15.4539 11.5016 11.2861L9.70736 11.3143C9.77573 15.5223 9.96078 18.5837 10.3108 20.8446C10.6608 23.1055 11.1958 24.7146 12.0165 25.9296C12.8402 27.0576 13.9036 27.9891 15.1302 28.6571C16.3372 29.3853 17.7814 30.1174 19.5032 31.264L20.5169 29.7715ZM10.6044 12.1993C11.8113 12.1993 16.4779 12.4005 20.5492 9.24648L19.4509 7.8264C15.9187 10.562 11.8596 10.4011 10.6004 10.4011L10.6044 12.1993Z" fill="white"/>
</g>
<defs>
<clipPath id="clip0_136_2746">
<rect width="40" height="40" fill="white"/>
</clipPath>
</defs>
</svg>
