<svg width="24" height="27" viewBox="0 0 24 27" fill="none" xmlns="http://www.w3.org/2000/svg">
<path d="M18.2564 16.2446C15.4693 16.2446 13.21 18.504 13.21 21.291C13.21 24.0781 15.4693 26.3374 18.2564 26.3374C21.0434 26.3374 23.3028 24.0781 23.3028 21.291C23.3028 18.504 21.0434 16.2446 18.2564 16.2446ZM20.7753 20.2416L17.7844 23.2325C17.6612 23.3557 17.4998 23.4173 17.3384 23.4173C17.177 23.4173 17.0155 23.3557 16.8924 23.2325L15.7375 22.0776C15.4911 21.8313 15.4911 21.4319 15.7375 21.1855C15.9838 20.9392 16.3832 20.9392 16.6295 21.1855L17.3384 21.8944L19.8832 19.3495C20.1295 19.1032 20.529 19.1032 20.7753 19.3495C21.0217 19.5959 21.0217 19.9953 20.7753 20.2416Z" fill="#B13ACD"/>
<path d="M9.95147 11.6682C11.5545 11.6682 12.9425 11.0933 14.0767 9.95894C15.2108 8.82479 15.7858 7.43709 15.7858 5.83391C15.7858 4.23129 15.2108 2.8434 14.0765 1.70889C12.9422 0.574927 11.5543 0 9.95147 0C8.34829 0 6.96059 0.574927 5.82645 1.70907C4.6923 2.84322 4.11719 4.2311 4.11719 5.83391C4.11719 7.43709 4.6923 8.82498 5.82663 9.95912C6.96096 11.0931 8.34885 11.6682 9.95147 11.6682Z" fill="#B13ACD"/>
<path fill-rule="evenodd" clip-rule="evenodd" d="M12.9532 24.2229C12.438 23.3322 12.1431 22.2981 12.1431 21.1951C12.1431 17.8506 14.8543 15.1394 18.1987 15.1394C18.6425 15.1394 19.0752 15.1871 19.4919 15.2778C19.3479 14.8841 19.1679 14.4962 18.9549 14.1215C18.6817 13.641 18.3609 13.2226 18.0009 12.8783C17.6245 12.5181 17.1635 12.2285 16.6306 12.0173C16.0994 11.8072 15.5108 11.7007 14.8812 11.7007C14.6339 11.7007 14.3948 11.8022 13.933 12.1029C13.6487 12.2882 13.3163 12.5026 12.9452 12.7397C12.6279 12.9419 12.198 13.1313 11.6671 13.3028C11.1491 13.4704 10.6231 13.5554 10.104 13.5554C9.58489 13.5554 9.05912 13.4704 8.54056 13.3028C8.01017 13.1315 7.58032 12.9421 7.26338 12.7399C6.8958 12.505 6.56315 12.2906 6.27467 12.1027C5.8134 11.802 5.57408 11.7006 5.32681 11.7006C4.697 11.7006 4.10858 11.8072 3.57763 12.0175C3.04503 12.2284 2.58394 12.518 2.20712 12.8785C1.84731 13.223 1.5263 13.6412 1.25353 14.1215C0.990553 14.5844 0.777658 15.0673 0.620944 15.5569C0.469589 16.0302 0.342997 16.5478 0.244681 17.0956C0.147289 17.6385 0.0811293 18.1536 0.0484188 18.6267C0.0162628 19.0902 0 19.5712 0 20.0571C0 21.3215 0.40195 22.3451 1.19458 23.1001C1.97741 23.845 3.01324 24.2229 4.27287 24.2229H12.9532Z" fill="#B13ACD"/>
</svg>
