<svg width="24" height="18" viewBox="0 0 24 18" fill="none" xmlns="http://www.w3.org/2000/svg">
<path d="M1.99935 8H5.99935C6.73268 8 7.33268 7.4 7.33268 6.66667V1.33333C7.33268 0.6 6.73268 0 5.99935 0H1.99935C1.26602 0 0.666016 0.6 0.666016 1.33333V6.66667C0.666016 7.4 1.26602 8 1.99935 8ZM1.99935 17.3333H5.99935C6.73268 17.3333 7.33268 16.7333 7.33268 16V10.6667C7.33268 9.93333 6.73268 9.33333 5.99935 9.33333H1.99935C1.26602 9.33333 0.666016 9.93333 0.666016 10.6667V16C0.666016 16.7333 1.26602 17.3333 1.99935 17.3333ZM9.99935 17.3333H13.9993C14.7327 17.3333 15.3327 16.7333 15.3327 16V10.6667C15.3327 9.93333 14.7327 9.33333 13.9993 9.33333H9.99935C9.26602 9.33333 8.66602 9.93333 8.66602 10.6667V16C8.66602 16.7333 9.26602 17.3333 9.99935 17.3333ZM17.9993 17.3333H21.9993C22.7327 17.3333 23.3327 16.7333 23.3327 16V10.6667C23.3327 9.93333 22.7327 9.33333 21.9993 9.33333H17.9993C17.266 9.33333 16.666 9.93333 16.666 10.6667V16C16.666 16.7333 17.266 17.3333 17.9993 17.3333ZM9.99935 8H13.9993C14.7327 8 15.3327 7.4 15.3327 6.66667V1.33333C15.3327 0.6 14.7327 0 13.9993 0H9.99935C9.26602 0 8.66602 0.6 8.66602 1.33333V6.66667C8.66602 7.4 9.26602 8 9.99935 8ZM16.666 1.33333V6.66667C16.666 7.4 17.266 8 17.9993 8H21.9993C22.7327 8 23.3327 7.4 23.3327 6.66667V1.33333C23.3327 0.6 22.7327 0 21.9993 0H17.9993C17.266 0 16.666 0.6 16.666 1.33333Z" fill="#5B5B5B"/>
</svg>
