<svg width="22" height="18" viewBox="0 0 22 18" fill="none" xmlns="http://www.w3.org/2000/svg">
<path d="M1.625 11.5H4.125C4.8125 11.5 5.375 10.9375 5.375 10.25V7.75C5.375 7.0625 4.8125 6.5 4.125 6.5H1.625C0.9375 6.5 0.375 7.0625 0.375 7.75V10.25C0.375 10.9375 0.9375 11.5 1.625 11.5ZM1.625 17.75H4.125C4.8125 17.75 5.375 17.1875 5.375 16.5V14C5.375 13.3125 4.8125 12.75 4.125 12.75H1.625C0.9375 12.75 0.375 13.3125 0.375 14V16.5C0.375 17.1875 0.9375 17.75 1.625 17.75ZM1.625 5.25H4.125C4.8125 5.25 5.375 4.6875 5.375 4V1.5C5.375 0.8125 4.8125 0.25 4.125 0.25H1.625C0.9375 0.25 0.375 0.8125 0.375 1.5V4C0.375 4.6875 0.9375 5.25 1.625 5.25ZM7.875 11.5H20.375C21.0625 11.5 21.625 10.9375 21.625 10.25V7.75C21.625 7.0625 21.0625 6.5 20.375 6.5H7.875C7.1875 6.5 6.625 7.0625 6.625 7.75V10.25C6.625 10.9375 7.1875 11.5 7.875 11.5ZM7.875 17.75H20.375C21.0625 17.75 21.625 17.1875 21.625 16.5V14C21.625 13.3125 21.0625 12.75 20.375 12.75H7.875C7.1875 12.75 6.625 13.3125 6.625 14V16.5C6.625 17.1875 7.1875 17.75 7.875 17.75ZM6.625 1.5V4C6.625 4.6875 7.1875 5.25 7.875 5.25H20.375C21.0625 5.25 21.625 4.6875 21.625 4V1.5C21.625 0.8125 21.0625 0.25 20.375 0.25H7.875C7.1875 0.25 6.625 0.8125 6.625 1.5Z" fill="white"/>
</svg>
