<svg width="22" height="22" viewBox="0 0 22 22" fill="none" xmlns="http://www.w3.org/2000/svg">
<path d="M11 0.4375C5.1759 0.4375 0.4375 5.1759 0.4375 11C0.4375 16.8241 5.1759 21.5625 11 21.5625C16.8241 21.5625 21.5625 16.8241 21.5625 11C21.5625 5.1759 16.8241 0.4375 11 0.4375ZM14.8243 13.6757C14.903 13.7504 14.9658 13.84 15.0093 13.9394C15.0527 14.0388 15.0758 14.1459 15.0771 14.2543C15.0785 14.3627 15.0582 14.4704 15.0173 14.5708C14.9765 14.6713 14.9159 14.7625 14.8392 14.8392C14.7625 14.9159 14.6713 14.9765 14.5708 15.0173C14.4704 15.0582 14.3627 15.0785 14.2543 15.0771C14.1459 15.0758 14.0388 15.0527 13.9394 15.0093C13.84 14.9658 13.7504 14.903 13.6757 14.8243L11 12.1492L8.32434 14.8243C8.17072 14.9703 7.96618 15.0504 7.75431 15.0477C7.54244 15.045 7.34001 14.9596 7.19019 14.8098C7.04036 14.66 6.95499 14.4576 6.95228 14.2457C6.94956 14.0338 7.02972 13.8293 7.17566 13.6757L9.85082 11L7.17566 8.32434C7.02972 8.17072 6.94956 7.96618 6.95228 7.75431C6.95499 7.54244 7.04036 7.34001 7.19019 7.19019C7.34001 7.04036 7.54244 6.95499 7.75431 6.95228C7.96618 6.94956 8.17072 7.02972 8.32434 7.17566L11 9.85082L13.6757 7.17566C13.8293 7.02972 14.0338 6.94956 14.2457 6.95228C14.4576 6.95499 14.66 7.04036 14.8098 7.19019C14.9596 7.34001 15.045 7.54244 15.0477 7.75431C15.0504 7.96618 14.9703 8.17072 14.8243 8.32434L12.1492 11L14.8243 13.6757Z" fill="#FF4D4F"/>
</svg>
