<svg width="12" height="13" viewBox="0 0 12 13" fill="none" xmlns="http://www.w3.org/2000/svg">
<path d="M8.20139 7.78159L5.71029 10.2727C4.88774 11.0953 3.5498 11.0953 2.72725 10.2727C1.90463 9.45007 1.90463 8.1122 2.72725 7.28958C2.86753 7.1493 6.60534 3.41149 6.3938 3.62302C7.22292 2.7939 8.58319 2.8293 9.37691 3.62302C9.78799 4.03418 10.4573 4.03418 10.8684 3.62302L11.5088 2.98269C11.3312 2.68091 11.1276 2.39052 10.8684 2.13148C9.30909 0.572056 6.62182 0.439376 4.9249 2.11296C4.91784 2.11999 4.90933 2.12442 4.90223 2.13148L1.23564 5.79807C-0.411846 7.44557 -0.411917 10.1167 1.23564 11.7643C2.88321 13.4118 5.55438 13.4118 7.20187 11.7643L10.8684 8.09768C10.8755 8.09065 10.8799 8.08218 10.8869 8.07501C9.98561 8.20628 9.05973 8.11628 8.20139 7.78159Z" fill="white"/>
</svg>
