<svg width="12" height="13" viewBox="0 0 12 13" fill="none" xmlns="http://www.w3.org/2000/svg">
<path d="M4.79809 1.23567L1.13948 4.89424C1.13241 4.90127 1.12802 4.90982 1.12099 4.91692C2.02229 4.78564 2.9482 4.87564 3.8065 5.21033L6.28959 2.72725C7.11221 1.90462 8.45008 1.90462 9.2727 2.72725C10.0953 3.5498 10.0953 4.88774 9.2727 5.71029C9.13243 5.85063 5.4026 9.58047 5.61413 9.36886C4.78501 10.1981 3.42474 10.1626 2.63102 9.36886C2.21994 8.95778 1.55063 8.95778 1.13948 9.36886L0.499146 10.0092C0.676755 10.311 0.880379 10.6014 1.13948 10.8605C2.70182 12.4228 5.39107 12.5476 7.08303 10.879C7.0901 10.8719 7.09861 10.8675 7.10571 10.8605L10.7643 7.2019C12.4118 5.55434 12.4118 2.88323 10.7643 1.23567C9.11671 -0.411891 6.44565 -0.411891 4.79809 1.23567Z" fill="white"/>
</svg>
