<svg width="17" height="14" viewBox="0 0 17 14" fill="none" xmlns="http://www.w3.org/2000/svg">
<path d="M16.98 2.04C16.38 2.3 15.76 2.48 15.1 2.56C15.78 2.16 16.3 1.52 16.54 0.74C15.9 1.12 15.2 1.38 14.46 1.54C13.86 0.9 13 0.5 12.06 0.5C10.24 0.5 8.78001 1.98 8.78001 3.78C8.78001 4.04 8.80001 4.28 8.86001 4.52C6.14 4.4 3.74 3.08 2.12 1.1C0.96 3.18 2.26 4.9 3.12 5.48C2.6 5.48 2.08 5.32 1.64 5.08C1.64 6.7 2.78 8.04 4.26 8.34C3.94 8.44 3.22 8.5 2.78 8.4C3.2 9.7 4.42 10.66 5.84 10.68C4.72 11.56 3.08 12.26 0.98 12.04C2.44 12.98 4.16 13.52 6.02 13.52C12.06 13.52 15.34 8.52 15.34 4.2C15.34 4.06 15.34 3.92 15.32 3.78C16 3.28 16.56 2.7 16.98 2.04Z" fill="white"/>
</svg>
